<svg id="visual" viewBox="0 0 900 600" width="900" height="600" xmlns="http://www.w3.org/2000/svg" xmlns:xlink="http://www.w3.org/1999/xlink" version="1.1"><rect x="0" y="0" width="900" height="600" fill="#001220"></rect><defs><linearGradient id="grad1_0" x1="33.3%" y1="0%" x2="100%" y2="100%"><stop offset="20%" stop-color="#f7770f" stop-opacity="1"></stop><stop offset="80%" stop-color="#f7770f" stop-opacity="1"></stop></linearGradient></defs><defs><linearGradient id="grad1_1" x1="33.3%" y1="0%" x2="100%" y2="100%"><stop offset="20%" stop-color="#f7770f" stop-opacity="1"></stop><stop offset="80%" stop-color="#e64a46" stop-opacity="1"></stop></linearGradient></defs><defs><linearGradient id="grad1_2" x1="33.3%" y1="0%" x2="100%" y2="100%"><stop offset="20%" stop-color="#be3261" stop-opacity="1"></stop><stop offset="80%" stop-color="#e64a46" stop-opacity="1"></stop></linearGradient></defs><defs><linearGradient id="grad1_3" x1="33.3%" y1="0%" x2="100%" y2="100%"><stop offset="20%" stop-color="#be3261" stop-opacity="1"></stop><stop offset="80%" stop-color="#872f6b" stop-opacity="1"></stop></linearGradient></defs><defs><linearGradient id="grad1_4" x1="33.3%" y1="0%" x2="100%" y2="100%"><stop offset="20%" stop-color="#4c2d60" stop-opacity="1"></stop><stop offset="80%" stop-color="#872f6b" stop-opacity="1"></stop></linearGradient></defs><defs><linearGradient id="grad1_5" x1="33.3%" y1="0%" x2="100%" y2="100%"><stop offset="20%" stop-color="#4c2d60" stop-opacity="1"></stop><stop offset="80%" stop-color="#1a2344" stop-opacity="1"></stop></linearGradient></defs><defs><linearGradient id="grad1_6" x1="33.3%" y1="0%" x2="100%" y2="100%"><stop offset="20%" stop-color="#001220" stop-opacity="1"></stop><stop offset="80%" stop-color="#1a2344" stop-opacity="1"></stop></linearGradient></defs><defs><linearGradient id="grad2_0" x1="0%" y1="0%" x2="66.7%" y2="100%"><stop offset="20%" stop-color="#f7770f" stop-opacity="1"></stop><stop offset="80%" stop-color="#f7770f" stop-opacity="1"></stop></linearGradient></defs><defs><linearGradient id="grad2_1" x1="0%" y1="0%" x2="66.7%" y2="100%"><stop offset="20%" stop-color="#e64a46" stop-opacity="1"></stop><stop offset="80%" stop-color="#f7770f" stop-opacity="1"></stop></linearGradient></defs><defs><linearGradient id="grad2_2" x1="0%" y1="0%" x2="66.7%" y2="100%"><stop offset="20%" stop-color="#e64a46" stop-opacity="1"></stop><stop offset="80%" stop-color="#be3261" stop-opacity="1"></stop></linearGradient></defs><defs><linearGradient id="grad2_3" x1="0%" y1="0%" x2="66.7%" y2="100%"><stop offset="20%" stop-color="#872f6b" stop-opacity="1"></stop><stop offset="80%" stop-color="#be3261" stop-opacity="1"></stop></linearGradient></defs><defs><linearGradient id="grad2_4" x1="0%" y1="0%" x2="66.7%" y2="100%"><stop offset="20%" stop-color="#872f6b" stop-opacity="1"></stop><stop offset="80%" stop-color="#4c2d60" stop-opacity="1"></stop></linearGradient></defs><defs><linearGradient id="grad2_5" x1="0%" y1="0%" x2="66.7%" y2="100%"><stop offset="20%" stop-color="#1a2344" stop-opacity="1"></stop><stop offset="80%" stop-color="#4c2d60" stop-opacity="1"></stop></linearGradient></defs><defs><linearGradient id="grad2_6" x1="0%" y1="0%" x2="66.7%" y2="100%"><stop offset="20%" stop-color="#1a2344" stop-opacity="1"></stop><stop offset="80%" stop-color="#001220" stop-opacity="1"></stop></linearGradient></defs><g transform="translate(900, 0)"><path d="M0 297.5C-22.8 292.6 -45.6 287.8 -62.8 274.9C-79.9 262.1 -91.3 241.2 -114.1 237C-136.9 232.7 -171 245.2 -185.5 232.6C-199.9 220 -194.7 182.3 -198.6 158.4C-202.5 134.4 -215.4 124.2 -230.6 111.1C-245.9 97.9 -263.4 81.8 -274.9 62.8C-286.4 43.7 -292 21.9 -297.5 0L0 0Z" fill="#091c32"></path><path d="M0 255C-19.6 250.8 -39.1 246.7 -53.8 235.7C-68.5 224.6 -78.3 206.7 -97.8 203.1C-117.3 199.5 -146.6 210.1 -159 199.3C-171.4 188.5 -166.9 156.3 -170.2 135.7C-173.5 115.2 -184.6 106.5 -197.7 95.2C-210.8 83.9 -225.8 70.1 -235.7 53.8C-245.5 37.5 -250.2 18.7 -255 0L0 0Z" fill="#312954"></path><path d="M0 212.5C-16.3 209 -32.6 205.6 -44.8 196.4C-57.1 187.2 -65.2 172.3 -81.5 169.3C-97.8 166.2 -122.1 175.1 -132.5 166.1C-142.8 157.1 -139.1 130.2 -141.8 113.1C-144.6 96 -153.9 88.7 -164.7 79.3C-175.6 69.9 -188.2 58.4 -196.4 44.8C-204.6 31.2 -208.5 15.6 -212.5 0L0 0Z" fill="#692f68"></path><path d="M0 170C-13 167.2 -26.1 164.5 -35.9 157.1C-45.6 149.8 -52.2 137.8 -65.2 135.4C-78.2 133 -97.7 140.1 -106 132.9C-114.2 125.7 -111.3 104.2 -113.5 90.5C-115.7 76.8 -123.1 71 -131.8 63.5C-140.5 55.9 -150.5 46.7 -157.1 35.9C-163.7 25 -166.8 12.5 -170 0L0 0Z" fill="#a42f69"></path><path d="M0 127.5C-9.8 125.4 -19.6 123.3 -26.9 117.8C-34.2 112.3 -39.1 103.4 -48.9 101.6C-58.7 99.7 -73.3 105.1 -79.5 99.7C-85.7 94.3 -83.4 78.1 -85.1 67.9C-86.8 57.6 -92.3 53.2 -98.8 47.6C-105.4 42 -112.9 35 -117.8 26.9C-122.8 18.7 -125.1 9.4 -127.5 0L0 0Z" fill="#d53a55"></path><path d="M0 85C-6.5 83.6 -13 82.2 -17.9 78.6C-22.8 74.9 -26.1 68.9 -32.6 67.7C-39.1 66.5 -48.9 70 -53 66.4C-57.1 62.8 -55.6 52.1 -56.7 45.2C-57.8 38.4 -61.5 35.5 -65.9 31.7C-70.3 28 -75.3 23.4 -78.6 17.9C-81.8 12.5 -83.4 6.2 -85 0L0 0Z" fill="#f25f31"></path><path d="M0 42.5C-3.3 41.8 -6.5 41.1 -9 39.3C-11.4 37.4 -13 34.5 -16.3 33.9C-19.6 33.2 -24.4 35 -26.5 33.2C-28.6 31.4 -27.8 26 -28.4 22.6C-28.9 19.2 -30.8 17.7 -32.9 15.9C-35.1 14 -37.6 11.7 -39.3 9C-40.9 6.2 -41.7 3.1 -42.5 0L0 0Z" fill="#f7770f"></path></g><g transform="translate(0, 600)"><path d="M0 -297.5C20.3 -285.3 40.6 -273.2 60.5 -265.2C80.5 -257.2 100 -253.3 118.9 -246.9C137.7 -240.5 155.8 -231.6 177.7 -222.8C199.6 -214 225.2 -205.4 232.6 -185.5C239.9 -165.6 229 -134.5 235.2 -113.2C241.3 -92 264.6 -80.6 277.9 -63.4C291.1 -46.2 294.3 -23.1 297.5 0L0 0Z" fill="#091c32"></path><path d="M0 -255C17.4 -244.6 34.8 -234.2 51.9 -227.3C69 -220.4 85.8 -217.1 101.9 -211.6C118 -206.1 133.6 -198.5 152.3 -191C171.1 -183.5 193 -176 199.3 -159C205.6 -141.9 196.3 -115.3 201.6 -97.1C206.9 -78.9 226.8 -69.1 238.2 -54.4C249.5 -39.6 252.2 -19.8 255 0L0 0Z" fill="#312954"></path><path d="M0 -212.5C14.5 -203.8 29 -195.1 43.2 -189.4C57.5 -183.7 71.5 -180.9 84.9 -176.3C98.4 -171.8 111.3 -165.4 126.9 -159.2C142.5 -152.9 160.9 -146.7 166.1 -132.5C171.4 -118.3 163.6 -96.1 168 -80.9C172.4 -65.7 189 -57.6 198.5 -45.3C207.9 -33 210.2 -16.5 212.5 0L0 0Z" fill="#692f68"></path><path d="M0 -170C11.6 -163 23.2 -156.1 34.6 -151.5C46 -146.9 57.2 -144.7 67.9 -141.1C78.7 -137.4 89 -132.3 101.5 -127.3C114 -122.3 128.7 -117.3 132.9 -106C137.1 -94.6 130.8 -76.8 134.4 -64.7C137.9 -52.6 151.2 -46.1 158.8 -36.2C166.3 -26.4 168.2 -13.2 170 0L0 0Z" fill="#a42f69"></path><path d="M0 -127.5C8.7 -122.3 17.4 -117.1 25.9 -113.6C34.5 -110.2 42.9 -108.5 51 -105.8C59 -103.1 66.8 -99.3 76.2 -95.5C85.5 -91.7 96.5 -88 99.7 -79.5C102.8 -71 98.1 -57.6 100.8 -48.5C103.4 -39.4 113.4 -34.6 119.1 -27.2C124.8 -19.8 126.1 -9.9 127.5 0L0 0Z" fill="#d53a55"></path><path d="M0 -85C5.8 -81.5 11.6 -78.1 17.3 -75.8C23 -73.5 28.6 -72.4 34 -70.5C39.3 -68.7 44.5 -66.2 50.8 -63.7C57 -61.2 64.3 -58.7 66.4 -53C68.5 -47.3 65.4 -38.4 67.2 -32.4C69 -26.3 75.6 -23 79.4 -18.1C83.2 -13.2 84.1 -6.6 85 0L0 0Z" fill="#f25f31"></path><path d="M0 -42.5C2.9 -40.8 5.8 -39 8.6 -37.9C11.5 -36.7 14.3 -36.2 17 -35.3C19.7 -34.4 22.3 -33.1 25.4 -31.8C28.5 -30.6 32.2 -29.3 33.2 -26.5C34.3 -23.7 32.7 -19.2 33.6 -16.2C34.5 -13.1 37.8 -11.5 39.7 -9.1C41.6 -6.6 42 -3.3 42.5 0L0 0Z" fill="#f7770f"></path></g></svg>